<svg version="1" xmlns="http://www.w3.org/2000/svg" width="194pt" height="194pt" viewBox="0 0 194.000000 194.000000"><path d="M84.5 1c-14.2 2-31 8.4-42.1 16.1-7.1 4.9-19.1 16.6-24 23.5-6.2 8.7-13 23.5-15.5 34-3.1 12.6-3.1 32.2 0 44.8 2.5 10.6 9.3 25.3 15.5 34 5 7 17 18.8 23.6 23.3 17.4 11.8 41.8 18.5 61.5 16.8 23.5-1.9 42.9-10.5 59.6-26.3 14.6-13.7 23.7-29.6 28.5-49.7 2.6-10.7 2.4-31.5-.5-42.9-2.5-10.6-9.3-25.3-15.5-34-5.1-7.1-17-18.8-23.9-23.5-7.8-5.3-22.6-11.9-31.7-14.1-9.8-2.3-26.7-3.3-35.5-2zm29.2 15.6c10.2 2.1 19 5.7 27.6 11.4 11 7.2 11 7.1 4.6 13.6-7.1 7.2-17.8 14.6-28.5 19.6-4.7 2.2-8.7 3.8-8.8 3.6-.2-.1-2.9-4.8-6.1-10.3-3.2-5.5-10-16.2-15.1-23.7l-9.3-13.8 2.7-.6c1.5-.3 3.2-.7 3.7-.9 3-1 22.6-.3 29.2 1.1zm-41.5 21.2c14.8 22.5 20 31.5 18.5 32.3-5.6 3-41 8.5-60.9 9.5l-13.8.7 1.6-5.4c3.7-12.8 11.7-26.3 21.4-36.1 5.5-5.5 20.1-15.8 22.4-15.8.6 0 5.5 6.7 10.8 14.8zm93.4 13.9c7.6 11.5 13.4 28.7 13.4 40 0 4.2-.2 4.5-2.2 4-7.1-1.8-22.4-3-37.6-2.9h-17.2l-3.5-7.6c-1.9-4.1-3.4-7.6-3.3-7.6 11.8-4.6 31-17.1 39.3-25.5 3.3-3.4 6.2-6.1 6.6-6.1.4 0 2.4 2.6 4.5 5.7zm-63.2 38.1l3.4 6.8-6.6 2.4c-15 5.3-30.3 15.2-43.2 28-7.5 7.4-16.1 17.7-19.6 23.6-.9 1.6-1.6 1-5.6-4.7-9.6-13.4-14.6-27-15.5-41.5l-.6-9.2 13.4-.6c17.3-.9 44.3-4.8 58.9-8.5 6.3-1.6 11.6-2.9 11.7-3 .2-.1 1.8 3 3.7 6.7zm65.5 18.2c5.1 1 9.6 2.2 9.9 2.5 1.2 1.2-2.9 14.1-7.2 23-4.9 10-13.3 20.6-21.6 27.4l-5.5 4.4-.7-2.9c-.4-1.6-2.1-9-3.9-16.4-1.7-7.4-5-19.3-7.3-26.3-4.8-14.6-5.3-13.5 6.4-13.9 10.6-.5 19.9.2 29.9 2.2zm-53.1 11.7c7.2 20.7 15.1 51.9 13.5 53.3-1.7 1.6-14.9 5-22.9 6-14.7 1.6-31.3-1.4-44.8-8.2-7.6-3.8-13.6-7.8-13.6-9 0-.5 1.8-3.5 3.9-6.7 11.5-16.8 30-31.6 51.1-40.7 4.1-1.8 8-3.3 8.6-3.3.6-.1 2.5 3.8 4.2 8.6z"/></svg>