<svg version="1" xmlns="http://www.w3.org/2000/svg" width="189pt" height="194pt" viewBox="0 0 189.000000 194.000000"><path d="M63 1.2c-15.1 2.1-28.9 8.8-37.7 18.1-19.7 20.8-15.1 52.6 9.4 65 6.1 3.1 15.4 5 22.2 4.6 5.6-.4 5.6-.4 4 5.2-1.4 4.7 0 11.5 3.6 16.8 1.4 1.9 2.5 3.8 2.5 4.1 0 .4-2.1.7-4.7.9-29.2 1.4-50.5 11.6-58.5 27.9-2.9 5.8-3.3 7.6-3.2 14.2 0 6.1.5 8.5 2.7 12.7 5.1 10 15.2 17.1 29.7 21 9 2.5 34.5 2.4 44.5 0 18.1-4.5 32.6-15.1 39.2-28.5 3.6-7.2 3.8-8.1 3.8-17.1-.1-8.4-.4-10.3-2.8-15.2-3.1-6.4-10.8-14.5-22.5-23.6-8.3-6.5-11.2-10.3-11.2-14.4 0-3.8 4.6-10.2 10.9-15.3 7.7-6.2 12.5-12.4 15.2-19.5 1.7-4.6 2-7.2 1.7-15.1-.5-11.8-3-17.9-11-26.5l-5.6-6 7.2.3c7 .3 7.2.3 14.9-4.7 4.4-2.7 8.1-5.2 8.5-5.5.9-1-55.8-.4-62.8.6zm4.5 10.7c16.6 7.6 28.1 41.4 19.6 57.9-5.4 10.7-19.9 14.9-31.1 9.2-13.9-7.1-23.9-32.5-19.9-50.9 3-13.9 18.7-22.1 31.4-16.2zm17.2 116.9c15.2 11.3 20.3 19.4 19 30.3-1.8 15.3-15.2 23.9-37.1 23.9-20.5 0-35.7-7.1-41.5-19.5-3.3-7-2.9-16.5.9-23.2 6.2-10.7 21.4-17 41.7-17.2l9.1-.1 7.9 5.8zM151 68.5v12.5h-25v13h25v24.8l6.1.4c3.3.1 6.3.1 6.5-.1.2-.2.4-6 .4-12.8v-12.3h25v-13h-25v-25h-13v12.5z"/></svg>