<svg version="1" xmlns="http://www.w3.org/2000/svg" width="150pt" height="194pt" viewBox="0 0 150.000000 194.000000"><path d="M68 .6c-17.2 3.2-25.9 6.3-36 12.9-23.8 15.5-36.1 43.5-30.6 69.7 2.8 13.1 11 24.6 20.3 28.5 3.5 1.4 3.8 1.4 5.4-.5.9-1.1 2.2-4.7 2.9-8 1.2-5.9 1.2-5.9-1.9-10.2-10.9-15.1-6.8-42.3 8.9-58 23.7-23.7 67.9-20.2 81.1 6.5 4.3 8.8 5.5 17.9 4 31.3-3.1 27.4-15.5 45.9-32 47.9-11.5 1.3-20.3-5.9-20.3-16.6 0-2.6 2-11.2 4.7-20.1 5.7-18.4 6.6-28.7 2.9-33.6-3.8-5.2-7.1-6.9-13-6.8-7.7 0-12.8 3.8-17.4 12.8-3.2 6.4-3.5 7.4-3.3 16 0 5.5.7 10.8 1.6 13.3 1.6 4.1 1.5 4.6-5.9 35.5-8.3 34.8-9.6 44.2-8.3 60.1.9 11 1.3 12.7 2.9 12.7 1.7 0 14.8-20.9 17.8-28.3 1.6-4 4.7-14.2 6.8-22.7 2.1-8.5 4-15.7 4.1-15.9.1-.2 1.6 1.3 3.3 3.3 4.8 5.4 12.8 8.9 21.9 9.4 33.7 1.9 59.3-27 61.8-69.9 1.8-32-17.1-57.9-48.9-66.9-7.1-2.1-26.9-3.5-32.8-2.4z"/></svg>