<svg xmlns="http://www.w3.org/2000/svg" width="100" height="100" viewBox="0 0 100 100"><path d="M25.4 74.569c2.18 2.177 3.506 5.131 3.514 8.42-.008 3.283-1.334 6.237-3.506 8.406l-.008.004c-2.176 2.166-5.148 3.49-8.453 3.49-3.301 0-6.266-1.328-8.441-3.494-2.17-2.168-3.506-5.119-3.506-8.406 0-3.289 1.336-6.25 3.506-8.423v.003c2.176-2.168 5.141-3.502 8.441-3.502 3.305 0 6.274 1.337 8.453 3.502zm0-.003v.003h.004l-.004-.003zm-16.894 16.833v-.004h-.004l.004.004zm-3.496-55.795v17.185c11.219.007 21.83 4.414 29.771 12.367 7.939 7.928 12.328 18.555 12.346 29.813h.006v.031h17.256c-.014-16.37-6.668-31.198-17.426-41.964-10.76-10.764-25.582-17.422-41.953-17.432zm.031-30.604v17.177c40.104.029 72.705 32.681 72.732 72.823h17.227c-.012-24.81-10.096-47.288-26.393-63.596-16.302-16.303-38.765-26.393-63.566-26.404z"/></svg>