<svg xmlns="http://www.w3.org/2000/svg" width="512" height="512" viewBox="0 0 512 512"><path d="M.001 154.185l20.797 27.272s42.885-33.804 57.18-16.901c14.294 16.901 68.868 220.976 87.085 258.622 15.9 33.014 59.759 76.66 107.856 45.491 48.069-31.17 207.919-167.642 236.533-328.806 28.589-161.113-192.36-127.363-215.764 13.005 58.495-35.118 89.718 14.269 59.785 70.185-29.879 55.862-57.18 92.296-71.476 92.296-14.268 0-25.245-37.383-41.593-102.722-16.9-67.551-16.796-189.229-87.058-175.434-66.261 13.005-153.345 116.992-153.345 116.992z"/></svg>