<svg version="1" xmlns="http://www.w3.org/2000/svg" width="276pt" height="194pt" viewBox="0 0 276.000000 194.000000"><path d="M73 1.1c-29.7 1.1-41.1 2.3-47.6 5.3-14.4 6.6-20.7 18.6-23.6 44.6-1.7 15.6-1.7 75.7 0 91.7 2.6 24.7 8.6 37 20.9 43.2 12 6 33.5 7.4 114.8 7.5 60.8 0 94.2-1.1 106-3.6 14.2-3 23.7-13 27.9-29.4 3-11.7 4.1-28.3 4.1-63.4-.1-46.1-1.8-61.8-8.5-75-5.7-11.3-15.5-17.3-31-19-25.5-2.7-111.7-3.7-163-1.9zm73 73.4c19.5 10.2 35.8 18.5 36.2 18.5 3.1 0-3.5 3.8-34.8 20-19.6 10.2-36 18.6-36.5 18.8-.5.2-.9-16.1-.9-37.7 0-21 .1-38.1.3-38.1.1 0 16.2 8.3 35.7 18.5z"/></svg>