<?xml version="1.0" standalone="no"?>
<!DOCTYPE svg PUBLIC "-//W3C//DTD SVG 20010904//EN"
 "http://www.w3.org/TR/2001/REC-SVG-20010904/DTD/svg10.dtd">
<svg version="1.0" xmlns="http://www.w3.org/2000/svg"
 width="194.000000pt" height="194.000000pt" viewBox="0 0 194.000000 194.000000"
 preserveAspectRatio="xMidYMid meet">
<g transform="translate(0.000000,194.000000) scale(0.100000,-0.100000)"
fill="#000000" stroke="none">
<path d="M845 1930 c-142 -20 -310 -84 -421 -161 -71 -49 -191 -166 -240 -235
-62 -87 -130 -235 -155 -340 -31 -126 -31 -322 0 -448 25 -106 93 -253 155
-340 50 -70 170 -188 236 -233 174 -118 418 -185 615 -168 235 19 429 105 596
263 146 137 237 296 285 497 26 107 24 315 -5 429 -25 106 -93 253 -155 340
-51 71 -170 188 -239 235 -78 53 -226 119 -317 141 -98 23 -267 33 -355 20z
m292 -156 c102 -21 190 -57 276 -114 110 -72 110 -71 46 -136 -71 -72 -178
-146 -285 -196 -47 -22 -87 -38 -88 -36 -2 1 -29 48 -61 103 -32 55 -100 162
-151 237 l-93 138 27 6 c15 3 32 7 37 9 30 10 226 3 292 -11z m-415 -212 c148
-225 200 -315 185 -323 -56 -30 -410 -85 -609 -95 l-138 -7 16 54 c37 128 117
263 214 361 55 55 201 158 224 158 6 0 55 -67 108 -148z m934 -139 c76 -115
134 -287 134 -400 0 -42 -2 -45 -22 -40 -71 18 -224 30 -376 29 l-172 0 -35
76 c-19 41 -34 76 -33 76 118 46 310 171 393 255 33 34 62 61 66 61 4 0 24
-26 45 -57z m-632 -381 l34 -68 -66 -24 c-150 -53 -303 -152 -432 -280 -75
-74 -161 -177 -196 -236 -9 -16 -16 -10 -56 47 -96 134 -146 270 -155 415 l-6
92 134 6 c173 9 443 48 589 85 63 16 116 29 117 30 2 1 18 -30 37 -67z m655
-182 c51 -10 96 -22 99 -25 12 -12 -29 -141 -72 -230 -49 -100 -133 -206 -216
-274 l-55 -44 -7 29 c-4 16 -21 90 -39 164 -17 74 -50 193 -73 263 -48 146
-53 135 64 139 106 5 199 -2 299 -22z m-531 -117 c72 -207 151 -519 135 -533
-17 -16 -149 -50 -229 -60 -147 -16 -313 14 -448 82 -76 38 -136 78 -136 90 0
5 18 35 39 67 115 168 300 316 511 407 41 18 80 33 86 33 6 1 25 -38 42 -86z"/>
</g>
</svg>
