<?xml version="1.0" standalone="no"?>
<!DOCTYPE svg PUBLIC "-//W3C//DTD SVG 20010904//EN"
 "http://www.w3.org/TR/2001/REC-SVG-20010904/DTD/svg10.dtd">
<svg version="1.0" xmlns="http://www.w3.org/2000/svg"
 width="102.000000pt" height="194.000000pt" viewBox="0 0 102.000000 194.000000"
 preserveAspectRatio="xMidYMid meet">
<g transform="translate(0.000000,194.000000) scale(0.100000,-0.100000)"
fill="#000000" stroke="none">
<path d="M632 1925 c-90 -20 -179 -72 -228 -132 -78 -96 -107 -218 -102 -432
l3 -131 -152 0 -153 0 0 -175 0 -175 150 0 150 0 0 -440 0 -440 180 0 180 0 0
440 0 440 148 0 148 0 18 133 c9 72 20 151 23 175 l6 42 -173 0 -172 0 4 148
c5 214 14 223 226 230 l132 4 0 153 c0 120 -3 154 -14 158 -7 3 -80 8 -162 11
-111 4 -165 2 -212 -9z"/>
</g>
</svg>
