<?xml version="1.0" standalone="no"?>
<!DOCTYPE svg PUBLIC "-//W3C//DTD SVG 20010904//EN"
 "http://www.w3.org/TR/2001/REC-SVG-20010904/DTD/svg10.dtd">
<svg version="1.0" xmlns="http://www.w3.org/2000/svg"
 width="189.000000pt" height="194.000000pt" viewBox="0 0 189.000000 194.000000"
 preserveAspectRatio="xMidYMid meet">
<g transform="translate(0.000000,194.000000) scale(0.100000,-0.100000)"
fill="#000000" stroke="none">
<path d="M630 1928 c-151 -21 -289 -88 -377 -181 -197 -208 -151 -526 94 -650
61 -31 154 -50 222 -46 56 4 56 4 40 -52 -14 -47 0 -115 36 -168 14 -19 25
-38 25 -41 0 -4 -21 -7 -47 -9 -292 -14 -505 -116 -585 -279 -29 -58 -33 -76
-32 -142 0 -61 5 -85 27 -127 51 -100 152 -171 297 -210 90 -25 345 -24 445 0
181 45 326 151 392 285 36 72 38 81 38 171 -1 84 -4 103 -28 152 -31 64 -108
145 -225 236 -83 65 -112 103 -112 144 0 38 46 102 109 153 77 62 125 124 152
195 17 46 20 72 17 151 -5 118 -30 179 -110 265 l-56 60 72 -3 c70 -3 72 -3
149 47 44 27 81 52 85 55 9 10 -558 4 -628 -6z m45 -107 c166 -76 281 -414
196 -579 -54 -107 -199 -149 -311 -92 -139 71 -239 325 -199 509 30 139 187
221 314 162z m172 -1169 c152 -113 203 -194 190 -303 -18 -153 -152 -239 -371
-239 -205 0 -357 71 -415 195 -33 70 -29 165 9 232 62 107 214 170 417 172
l91 1 79 -58z"/>
<path d="M1510 1255 l0 -125 -125 0 -125 0 0 -65 0 -65 125 0 125 0 0 -124 0
-124 61 -4 c33 -1 63 -1 65 1 2 2 4 60 4 128 l0 123 125 0 125 0 0 65 0 65
-125 0 -125 0 0 125 0 125 -65 0 -65 0 0 -125z"/>
</g>
</svg>
