<?xml version="1.0" standalone="no"?>
<!DOCTYPE svg PUBLIC "-//W3C//DTD SVG 20010904//EN"
 "http://www.w3.org/TR/2001/REC-SVG-20010904/DTD/svg10.dtd">
<svg version="1.0" xmlns="http://www.w3.org/2000/svg"
 width="150.000000pt" height="194.000000pt" viewBox="0 0 150.000000 194.000000"
 preserveAspectRatio="xMidYMid meet">
<g transform="translate(0.000000,194.000000) scale(0.100000,-0.100000)"
fill="#000000" stroke="none">
<path d="M680 1934 c-172 -32 -259 -63 -360 -129 -238 -155 -361 -435 -306
-697 28 -131 110 -246 203 -285 35 -14 38 -14 54 5 9 11 22 47 29 80 12 59 12
59 -19 102 -109 151 -68 423 89 580 237 237 679 202 811 -65 43 -88 55 -179
40 -313 -31 -274 -155 -459 -320 -479 -115 -13 -203 59 -203 166 0 26 20 112
47 201 57 184 66 287 29 336 -38 52 -71 69 -130 68 -77 0 -128 -38 -174 -128
-32 -64 -35 -74 -33 -160 0 -55 7 -108 16 -133 16 -41 15 -46 -59 -355 -83
-348 -96 -442 -83 -601 9 -110 13 -127 29 -127 17 0 148 209 178 283 16 40 47
142 68 227 21 85 40 157 41 159 1 2 16 -13 33 -33 48 -54 128 -89 219 -94 337
-19 593 270 618 699 18 320 -171 579 -489 669 -71 21 -269 35 -328 24z"/>
</g>
</svg>
