<?xml version="1.0" standalone="no"?>
<!DOCTYPE svg PUBLIC "-//W3C//DTD SVG 20010904//EN"
 "http://www.w3.org/TR/2001/REC-SVG-20010904/DTD/svg10.dtd">
<svg version="1.0" xmlns="http://www.w3.org/2000/svg"
 width="276.000000pt" height="194.000000pt" viewBox="0 0 276.000000 194.000000"
 preserveAspectRatio="xMidYMid meet">
<g transform="translate(0.000000,194.000000) scale(0.100000,-0.100000)"
fill="#000000" stroke="none">
<path d="M730 1929 c-297 -11 -411 -23 -476 -53 -144 -66 -207 -186 -236 -446
-17 -156 -17 -757 0 -917 26 -247 86 -370 209 -432 120 -60 335 -74 1148 -75
608 0 942 11 1060 36 142 30 237 130 279 294 30 117 41 283 41 634 -1 461 -18
618 -85 750 -57 113 -155 173 -310 190 -255 27 -1117 37 -1630 19z m730 -734
c195 -102 358 -185 362 -185 31 0 -35 -38 -348 -200 -196 -102 -360 -186 -365
-188 -5 -2 -9 161 -9 377 0 210 1 381 3 381 1 0 162 -83 357 -185z"/>
</g>
</svg>
